<?xml version="1.0" encoding="UTF-8"?>
<svg width="20px" height="16px" viewBox="0 0 20 16" version="1.1" xmlns="http://www.w3.org/2000/svg" xmlns:xlink="http://www.w3.org/1999/xlink">
    <title>email_icon</title>
    <g id="Page-1" stroke="none" stroke-width="1" fill="none" fill-rule="evenodd">
        <g id="Minimal-Login-Page-Copy" transform="translate(-197.000000, -386.000000)" fill="#DFE2E6">
            <g id="Login" transform="translate(185.000000, 265.504000)">
                <g id="Inputs-/-Login" transform="translate(0.000000, 85.871000)">
                    <g id="email_icon" transform="translate(12.000000, 34.625000)">
                        <path d="M2,0 L18,0 C19.1046,0 20,0.8954 20,2 L20,14.00003 C20,15.10453 19.1046,16.00003 18,16.00003 L2,16.00003 C0.89543,16.00003 0,15.10453 0,14.00003 L0,2 C0,0.8954 0.89543,0 2,0 Z M10,7.00003 L18,2 L2,2 L10,7.00003 Z M2,14.00003 L18,14.00003 L18,4.37 L10,9.35863 L2,4.37 L2,14.00003 Z" id="Shape"></path>
                    </g>
                </g>
            </g>
        </g>
    </g>
</svg>